<svg xmlns="http://www.w3.org/2000/svg" viewBox="0 0 219.64 212.36"><defs><style>.cls-1{fill:#fff;}.cls-2{fill:#ffe089;}</style></defs><title>Asset 1</title><g id="Layer_2" data-name="Layer 2"><g id="Layer_1-2" data-name="Layer 1"><path d="M218.88,127.42c1.51,3.26.74,6.42-2.22,7.69-7.09,3-12.87,8-19.15,12.31a44.94,44.94,0,0,1-34,7.34A59.36,59.36,0,0,1,137,143.45a2,2,0,0,0-1.72-.62c0,3,1.12,5.91,1.6,8.86a77.79,77.79,0,0,1-1.14,33.09c-2.46,9.24-7.13,17.17-13.17,24.41-3.4,4.07-6.8,4.2-10.6.46-4.69-4.62-10.53-7.62-16-11.09-11.4-7.2-18.23-17.34-20.86-30.51A59.17,59.17,0,0,1,78,133.89c.35-.87.59-1.77,1-3.1L70,136.2a84.68,84.68,0,0,1-31.17,11.3,59.59,59.59,0,0,1-35.2-5.62c-2.83-1.36-4.46-4-3.18-6.67,4.14-8.54,5.41-18,8.77-26.77A41.6,41.6,0,0,1,23.28,89.73c11-8.28,23.43-12.07,37.13-12,2.08,0,4.15.72,6.72.13-1.85-1.6-3.45-3-5.07-4.4-10.24-8.81-18.64-19-23.82-31.62A60.29,60.29,0,0,1,34.35,10.7c.08-.62.24-1.24.38-1.85.86-3.64,2.44-5.08,6.15-4.65,7.6.9,15.21.46,22.8.36,13-.17,23.77,4.72,33,13.64a58.88,58.88,0,0,1,16.88,31.39,11,11,0,0,0,.25,1.14c0,.14.19.24.55.66,1.72-3.77,3.19-7.39,4.92-10.89,6.57-13.26,15.45-24.5,28.19-32.33A57.32,57.32,0,0,1,170.79.05a5.62,5.62,0,0,1,6.62,5.16c.52,6.53,2.94,12.52,5.11,18.53,5,13.8,3.74,26.87-3.22,39.65A60,60,0,0,1,155.69,87l-2,1.17c2.27,1,4.39.9,6.37,1.16,12.59,1.6,24.58,5,35.46,11.71A60,60,0,0,1,218.88,127.42Z"/><path class="cls-1" d="M178,27.87c3.25,10.74,1.8,20.8-3.46,30.65A50.39,50.39,0,0,1,158.3,77c-8.86,6-18.4,10.41-29.3,11.21-1.79.14-3.57.46-5.36.7-.45.06-1,.29-1.25-.25s.26-.84.61-1.12c5.51-4.52,11-9.11,17.13-12.77a8.73,8.73,0,0,0,2-1.56c-7.3,2-13.54,5.92-19.51,10.45a133.1,133.1,0,0,1,20-25.61c-9.45,4.86-15.92,12.76-22.07,21.08,4.74-13.39,10.08-26.46,18-38.42-4.18,2.88-7.17,6.8-10,10.93a92.2,92.2,0,0,0-7.37,13.38c-2.11,4.59-3.94,9.31-5.93,14.06-.11-12.53,4.07-23.81,9.12-34.83a78.32,78.32,0,0,1,16.38-23.64,52.09,52.09,0,0,1,25.5-14.28c5-1.11,5.13-1,6.24,3.78C173.91,16.2,176.23,22,178,27.87Z"/><path class="cls-1" d="M109.3,58.87c.79,7.14-.81,13.86-2,20.71,0,.31-.13.62-.78.78a173.19,173.19,0,0,1-8.07-23,29.34,29.34,0,0,0,.92,10.81c.84,3.55,2,7,3.19,11.21A140,140,0,0,1,84.21,51.78a39.58,39.58,0,0,0,5,14.6,124.2,124.2,0,0,0,8.28,13A163.26,163.26,0,0,1,80.85,65.67,177,177,0,0,1,66.23,50.18c2.65,7.44,7.42,13.41,12.68,19.12S90.18,79.61,96.32,84.85c-8.47-2.21-15.42-6.34-22-11.23-11.9-8.88-22.17-19.21-28.54-32.85A52.28,52.28,0,0,1,41,11.69c.2-1.61.89-2.18,2.45-2,6.73.85,13.48.14,20.21,0,12.59-.27,22.55,5,31,13.83C104.09,33.44,107.83,45.59,109.3,58.87Z"/><path class="cls-1" d="M83.27,87.22c3.85,1.33,7.35,3.66,11,5.78a136.59,136.59,0,0,1-24.08.71C77.25,96.85,84.8,96.56,93,96.37a159.34,159.34,0,0,1-32.46,9.27c10.52,1.73,20.35-1.22,30.22-4.18-6.06,4.13-12.13,8.13-18.52,11.63a201.22,201.22,0,0,1-19.67,9.24c16.59-1.19,30-9.88,43.87-18.77a73.07,73.07,0,0,1-17,17.94,109,109,0,0,1-24.34,14.07c-14.68,5.82-29.49,7-44.47,1.13a8,8,0,0,0-.86-.37c-2.1-.6-2.63-1.53-1.51-3.7,2.74-5.34,3.9-11.25,5.34-17,3.5-14,12.42-23,25.39-28.49C53.75,80.92,68.57,82.14,83.27,87.22Z"/><path class="cls-1" d="M129.94,145.7c2.07,9,3.07,18.1,1.9,27.31-1.43,11.22-5.48,21.34-12.94,30-1,1.18-1.58,1.23-2.73.11-4-3.91-9.07-6.42-13.71-9.48-5-3.29-9.89-6.61-13.55-11.49-4.45-6-6.55-12.8-7.73-20-1.86-11.31.4-22,5.37-32.18s8-14,15.62-20.5a63.86,63.86,0,0,1-2.85,11.76A64.86,64.86,0,0,1,95,132.49c3.32-2.32,5.69-7.29,10.39-21.51.34,11.72.53,22.92-1.4,34.06,4.75-9.58,5.3-19.9,5.5-30.32,4,13.93,7.55,27.94,7.94,42.57,3.85-14.28.53-28.06-2.49-42,3,5.25,7,9.81,10,15C127.65,135,128.73,140.42,129.94,145.7Z"/><path class="cls-1" d="M212.41,126.39c.93,1.73.69,2.5-1.11,3.37-6.24,3-11.53,7.54-17.23,11.41-8.58,5.83-17.85,7.75-28.16,6.3-14.32-2-25.48-9.15-34.56-20-2.28-2.72-2.87-6.4-4.53-9.52-1.77-3.31-3.34-6.73-5.27-10a22,22,0,0,1-.91-2.06,177.15,177.15,0,0,1,19.3,13.4c-4-6.37-9.84-10.7-15.74-15.24,3.36,1,6.76,1.87,10.08,3,3.49,1.16,7,2.43,10.36,3.84s6.47,3,9.7,4.49l.26-.53c-7.42-6.86-16.63-10.4-26.07-13.61,4.66-.58,9.26,0,13.86.43,4.75.44,9.52.94,14.22,1.76s9.14,2,14,3.13c-6-4.75-17.53-9.11-42.84-10.68,2.8-.64,5.57-1.66,8.4-1.86,15.4-1.11,30.58,0,45.13,5.66C194.81,104.94,205.53,113.43,212.41,126.39Z"/><path class="cls-2" d="M117.38,95.81a7.95,7.95,0,0,1-15.89-.13c0-4.69,3.24-7.89,8-7.88A7.62,7.62,0,0,1,117.38,95.81Z"/></g></g></svg>